<svg width="128" height="128" viewBox="0 0 128 128" fill="none" xmlns="http://www.w3.org/2000/svg">
    <rect width="128" height="128" rx="56" fill="white" />
    <path d="M61.1379 26.5366C59.3823 24.781 59.3823 21.9345 61.1379 20.1789V20.1789C62.8936 18.4232 65.7401 18.4232 67.4957 20.1789L107.757 60.4405C110.101 62.7837 110.101 66.5827 107.757 68.9258L105.642 71.0409L61.1379 26.5366Z" fill="#7900EA" />
    <path d="M60.5043 20.1789C62.2599 18.4232 65.1064 18.4232 66.8621 20.1789V20.1789C68.6177 21.9345 68.6177 24.781 66.8621 26.5366L22.3578 71.0409L20.2426 68.9258C17.8995 66.5827 17.8995 62.7837 20.2426 60.4405L60.5043 20.1789Z" fill="#7900EA" />
    <rect x="59.4576" y="35.7317" width="8.99123" height="34.4664" rx="4.49561" fill="#7900EA" />
    <rect x="80.4371" y="92.6762" width="8.99123" height="8.99123" rx="4.49561" fill="#7900EA" />
    <rect x="59.4576" y="72.4459" width="8.99123" height="17.9825" rx="4.49561" fill="#7900EA" />
    <rect x="38.4781" y="92.6762" width="8.99123" height="17.9825" rx="4.49561" fill="#7900EA" />
    <rect x="38.4781" y="56.7113" width="8.99123" height="33.7171" rx="4.49561" fill="#7900EA" />
    <rect x="80.4371" y="56.7113" width="8.99123" height="33.7171" rx="4.49561" fill="#7900EA" />
</svg>
