<svg
  width="180"
  height="180"
  viewBox="0 0 180 180"
  fill="none"
  xmlns="http://www.w3.org/2000/svg"
>
  <rect width="180" height="180" rx="80" fill="#00E690" />

  <circle cx="90" cy="90" r="60" fill="white" />

  <path
    d="M86.5269 56.8284C88.089 55.2663 90.6217 55.2663 92.1838 56.8284V56.8284C93.7459 58.3905 93.7459 60.9232 92.1838 62.4853L59.6569 95.0122L56.8284 92.1838C55.2663 90.6217 55.2663 88.089 56.8284 86.5269L86.5269 56.8284Z"
    fill="#7900EA"
  />

  <path
    d="M86.8284 62.4853C85.2663 60.9232 85.2663 58.3905 86.8284 56.8284V56.8284C88.3905 55.2663 90.9232 55.2663 92.4853 56.8284L122.184 86.5269C123.746 88.089 123.746 90.6217 122.184 92.1838L119.355 95.0122L86.8284 62.4853Z"
    fill="#7900EA"
  />

  <rect x="101" y="71" width="8" height="38" rx="4" fill="#7900EA" />
  <rect x="71" y="70" width="8" height="37" rx="4" fill="#7900EA" />
  <rect x="86" y="56" width="8" height="41" rx="4" fill="#7900EA" />
  <rect x="71" y="109" width="8" height="16" rx="4" fill="#7900EA" />
  <rect x="86" y="99" width="8" height="16" rx="4" fill="#7900EA" />
  <rect x="101" y="111" width="8" height="8" rx="4" fill="#7900EA" />
</svg>
