<svg width="128" height="128" viewBox="0 0 128 128" fill="none" xmlns="http://www.w3.org/2000/svg">
    <g clip-path="url(#clip0_3_11)">
        <path d="M60.2426 12.7279C57.8995 10.3848 57.8995 6.58578 60.2426 4.24263V4.24263C62.5858 1.89949 66.3848 1.89949 68.7279 4.24263L123.882 59.397C126.225 61.7401 126.225 65.5391 123.882 67.8822L119.64 72.1249L60.2426 12.7279Z" fill="#7900EA" />
        <path d="M59.397 4.24264C61.7401 1.89949 65.5391 1.89949 67.8823 4.24264V4.24264C70.2254 6.58579 70.2254 10.3848 67.8823 12.7279L8.48528 72.1249L4.24264 67.8822C1.8995 65.5391 1.8995 61.7401 4.24264 59.397L59.397 4.24264Z" fill="#7900EA" />
        <rect x="58" y="25" width="12" height="46" rx="6" fill="#7900EA" />
        <rect x="86" y="101" width="12" height="12" rx="6" fill="#7900EA" />
        <rect x="58" y="74" width="12" height="24" rx="6" fill="#7900EA" />
        <rect x="30" y="101" width="12" height="24" rx="6" fill="#7900EA" />
        <rect x="30" y="53" width="12" height="45" rx="6" fill="#7900EA" />
        <rect x="86" y="53" width="12" height="45" rx="6" fill="#7900EA" />
    </g>
    <defs>
        <clipPath id="clip0_3_11">
            <rect width="128" height="128" fill="white" />
        </clipPath>
    </defs>
</svg>