<svg
  width="71"
  height="71"
  viewBox="0 0 71 71"
  fill="none"
  xmlns="http://www.w3.org/2000/svg"
>
  <path
    d="M32.5269 2.82843C34.089 1.26633 36.6217 1.26633 38.1838 2.82843V2.82843C39.7459 4.39052 39.7459 6.92318 38.1838 8.48528L5.65686 41.0122L2.82844 38.1838C1.26634 36.6217 1.26634 34.089 2.82844 32.5269L32.5269 2.82843Z"
    fill="#7900EA"
  />

  <path
    d="M32.8284 8.48528C31.2663 6.92318 31.2663 4.39052 32.8284 2.82843V2.82843C34.3905 1.26633 36.9232 1.26633 38.4853 2.82843L68.1838 32.5269C69.7459 34.089 69.7459 36.6217 68.1838 38.1838L65.3553 41.0122L32.8284 8.48528Z"
    fill="#7900EA"
  />

  <rect x="47" y="17" width="8" height="38" rx="4" fill="#7900EA" />
  <rect x="17" y="16" width="8" height="37" rx="4" fill="#7900EA" />
  <rect x="32" y="2" width="8" height="41" rx="4" fill="#7900EA" />
  <rect x="17" y="55" width="8" height="16" rx="4" fill="#7900EA" />
  <rect x="32" y="45" width="8" height="16" rx="4" fill="#7900EA" />
  <rect x="47" y="57" width="8" height="8" rx="4" fill="#7900EA" />
</svg>
