<svg width="512" height="544" viewBox="0 0 512 544" fill="none" xmlns="http://www.w3.org/2000/svg">
    <path d="M482.104 384H29.8963C17.1171 384 9.49488 369.758 16.5835 359.125L242.687 19.9692C249.02 10.4695 262.98 10.4695 269.313 19.9692L495.417 359.125C502.505 369.758 494.883 384 482.104 384Z" fill="#00B0FF" />
    <circle cx="256" cy="480" r="64" fill="#FFC400" />
    <path d="M0 492.492C0 485.15 5.05526 478.729 12.1873 476.988C200.555 431.004 311.445 431.004 499.813 476.988C506.945 478.729 512 485.15 512 492.492V528C512 536.837 504.837 544 496 544H16C7.16344 544 0 536.837 0 528V492.492Z" fill="#00C853" />
</svg>