<svg
  width="148"
  height="140"
  viewBox="0 0 148 140"
  fill="none"
  xmlns="http://www.w3.org/2000/svg"
>
  <path
    d="M70.5269 2.82843C72.089 1.26633 74.6217 1.26633 76.1838 2.82843V2.82843C77.7459 4.39052 77.7459 6.92318 76.1838 8.48528L43.6569 41.0122L40.8284 38.1838C39.2663 36.6217 39.2663 34.089 40.8284 32.5269L70.5269 2.82843Z"
    fill="#7900EA"
  />

  <path
    d="M70.8284 8.48528C69.2663 6.92318 69.2663 4.39052 70.8284 2.82843V2.82843C72.3905 1.26633 74.9232 1.26633 76.4853 2.82843L106.184 32.5269C107.746 34.089 107.746 36.6217 106.184 38.1838L103.355 41.0122L70.8284 8.48528Z"
    fill="#7900EA"
  />

  <rect x="85" y="17" width="8" height="38" rx="4" fill="#7900EA" />
  <rect x="55" y="16" width="8" height="37" rx="4" fill="#7900EA" />
  <rect x="70" y="2" width="8" height="41" rx="4" fill="#7900EA" />
  <rect x="55" y="55" width="8" height="16" rx="4" fill="#7900EA" />
  <rect x="70" y="45" width="8" height="16" rx="4" fill="#7900EA" />
  <rect x="85" y="57" width="8" height="8" rx="4" fill="#7900EA" />

  <path
    d="M4.22056 88.4V122H9.98056V88.4H4.22056ZM15.0686 122C18.4926 122 21.5006 121.312 24.0926 119.936C26.6846 118.528 28.7006 116.576 30.1406 114.08C31.6126 111.552 32.3486 108.592 32.3486 105.2C32.3486 101.808 31.6126 98.864 30.1406 96.368C28.7006 93.84 26.6846 91.888 24.0926 90.512C21.5006 89.104 18.4926 88.4 15.0686 88.4H7.72456V93.728H14.9246C16.5886 93.728 18.1246 93.968 19.5326 94.448C20.9406 94.928 22.1566 95.648 23.1806 96.608C24.2366 97.568 25.0526 98.768 25.6286 100.208C26.2366 101.648 26.5406 103.312 26.5406 105.2C26.5406 107.088 26.2366 108.752 25.6286 110.192C25.0526 111.632 24.2366 112.832 23.1806 113.792C22.1566 114.752 20.9406 115.472 19.5326 115.952C18.1246 116.432 16.5886 116.672 14.9246 116.672H7.72456V122H15.0686ZM40.4557 113.36H58.2157L57.1117 108.56H41.5117L40.4557 113.36ZM49.2397 97.904L54.5677 110.384L54.7117 111.776L59.2717 122H65.6557L49.2397 86.528L32.8237 122H39.2077L43.8637 111.488L43.9597 110.24L49.2397 97.904ZM95.1671 110.912L85.5191 86.72L75.9671 110.912L67.9991 88.4H61.4231L75.1511 123.776L85.5191 100.016L95.8871 123.776L109.615 88.4H103.039L95.1671 110.912ZM138.249 88.4V110.96L113.721 86.72V122H119.289V99.44L143.817 123.68V88.4H138.249Z"
    fill="#00E690"
  />
</svg>
