<svg width="167" height="180" viewBox="0 0 167 180" fill="none" xmlns="http://www.w3.org/2000/svg">
    <g clip-path="url(#clip0_3_40)">
        <path d="M79.2426 12.7279C76.8995 10.3848 76.8995 6.58578 79.2426 4.24263V4.24263C81.5858 1.89949 85.3848 1.89949 87.7279 4.24263L142.882 59.397C145.225 61.7401 145.225 65.5391 142.882 67.8822L138.64 72.1249L79.2426 12.7279Z" fill="#7900EA" />
        <path d="M78.397 4.24264C80.7401 1.89949 84.5391 1.89949 86.8823 4.24264V4.24264C89.2254 6.58579 89.2254 10.3848 86.8823 12.7279L27.4853 72.1249L23.2426 67.8822C20.8995 65.5391 20.8995 61.7401 23.2426 59.397L78.397 4.24264Z" fill="#7900EA" />
        <rect x="77" y="25" width="12" height="46" rx="6" fill="#7900EA" />
        <rect x="105" y="101" width="12" height="12" rx="6" fill="#7900EA" />
        <rect x="77" y="74" width="12" height="24" rx="6" fill="#7900EA" />
        <rect x="49" y="101" width="12" height="24" rx="6" fill="#7900EA" />
        <rect x="49" y="53" width="12" height="45" rx="6" fill="#7900EA" />
        <rect x="105" y="53" width="12" height="45" rx="6" fill="#7900EA" />
    </g>
    <path d="M4.9235 131.2V176H16.0595V131.2H4.9235ZM20.9235 176C25.8302 176 30.0755 175.083 33.6595 173.248C37.2435 171.413 40.0168 168.832 41.9795 165.504C43.9422 162.133 44.9235 158.165 44.9235 153.6C44.9235 148.992 43.9422 145.024 41.9795 141.696C40.0168 138.368 37.2435 135.787 33.6595 133.952C30.0755 132.117 25.8302 131.2 20.9235 131.2H12.0915V140.8H20.5395C22.2462 140.8 23.8888 141.013 25.4675 141.44C27.0888 141.867 28.4968 142.571 29.6915 143.552C30.9288 144.533 31.9102 145.856 32.6355 147.52C33.3608 149.141 33.7235 151.168 33.7235 153.6C33.7235 156.032 33.3608 158.08 32.6355 159.744C31.9102 161.365 30.9288 162.667 29.6915 163.648C28.4968 164.629 27.0888 165.333 25.4675 165.76C23.8888 166.187 22.2462 166.4 20.5395 166.4H12.0915V176H20.9235ZM58.389 166.784C58.389 166.059 58.5597 165.461 58.901 164.992C59.2423 164.48 59.7543 164.096 60.437 163.84C61.1197 163.584 62.037 163.456 63.189 163.456C64.6823 163.456 66.0903 163.669 67.413 164.096C68.7783 164.48 69.973 165.056 70.997 165.824V161.536C70.485 160.981 69.717 160.448 68.693 159.936C67.669 159.424 66.4317 158.997 64.981 158.656C63.573 158.315 61.973 158.144 60.181 158.144C56.5117 158.144 53.6743 158.976 51.669 160.64C49.6637 162.261 48.661 164.48 48.661 167.296C48.661 169.301 49.1303 171.008 50.069 172.416C51.0503 173.824 52.3303 174.891 53.909 175.616C55.5303 176.299 57.2797 176.64 59.157 176.64C61.0343 176.64 62.7837 176.32 64.405 175.68C66.0263 174.997 67.349 174.016 68.373 172.736C69.397 171.413 69.909 169.813 69.909 167.936L68.885 164.096C68.885 165.461 68.5863 166.613 67.989 167.552C67.3917 168.491 66.6237 169.195 65.685 169.664C64.7463 170.133 63.7223 170.368 62.613 170.368C61.845 170.368 61.141 170.24 60.501 169.984C59.861 169.685 59.349 169.28 58.965 168.768C58.581 168.213 58.389 167.552 58.389 166.784ZM54.101 155.584C54.5277 155.328 55.2103 155.008 56.149 154.624C57.0877 154.197 58.1757 153.835 59.413 153.536C60.693 153.237 61.9943 153.088 63.317 153.088C64.213 153.088 65.0023 153.173 65.685 153.344C66.4103 153.515 67.0077 153.792 67.477 154.176C67.9463 154.56 68.2877 155.029 68.501 155.584C68.757 156.096 68.885 156.715 68.885 157.44V176H78.165V155.264C78.165 153.216 77.5677 151.488 76.373 150.08C75.1783 148.672 73.557 147.605 71.509 146.88C69.461 146.112 67.1357 145.728 64.533 145.728C61.7597 145.728 59.1997 146.091 56.853 146.816C54.5063 147.541 52.501 148.309 50.837 149.12L54.101 155.584ZM80.8645 146.56L96.0325 177.856L105.569 160.32L115.297 177.856L130.465 146.56H120.353L114.208 161.664L105.569 144.32L97.1205 161.664L90.9765 146.56H80.8645ZM152.912 158.08V176H162.96V157.056C162.96 153.515 162.128 150.763 160.464 148.8C158.8 146.837 156.133 145.856 152.464 145.856C150.288 145.856 148.453 146.304 146.96 147.2C145.509 148.096 144.357 149.355 143.504 150.976V146.56H133.776V176H143.504V158.08C143.504 156.928 143.717 155.947 144.144 155.136C144.571 154.325 145.168 153.707 145.936 153.28C146.704 152.853 147.6 152.64 148.624 152.64C150.16 152.64 151.248 153.109 151.888 154.048C152.571 154.987 152.912 156.331 152.912 158.08Z" fill="#00E690" />
    <defs>
        <clipPath id="clip0_3_40">
            <rect width="128" height="128" fill="white" transform="translate(19)" />
        </clipPath>
    </defs>
</svg>